<?xml version="1.0" encoding="utf-8"?>
<!-- Svg Vector Icons : http://www.onlinewebfonts.com/icon -->
<!DOCTYPE svg PUBLIC "-//W3C//DTD SVG 1.1//EN" "http://www.w3.org/Graphics/SVG/1.1/DTD/svg11.dtd">
<svg version="1.1" xmlns="http://www.w3.org/2000/svg" xmlns:xlink="http://www.w3.org/1999/xlink" x="0px" y="0px" viewBox="0 0 256 256" enable-background="new 0 0 256 256" xml:space="preserve">
<metadata> Svg Vector Icons : http://www.onlinewebfonts.com/icon </metadata>
<g><g><g><path fill="#000000" d="M99.1,10.4c-9.9,1.3-16.2,4.8-17.7,9.8c-0.4,1.4-0.4,3.7,0.2,10.9c1.2,13.6,2.2,16.5,6.6,18.7c1.3,0.7,7.8,1.2,18.1,1.5c4.7,0.1,5.3,0.4,5.1,1.7c-0.6,4.3-20.2,4.5-26.9,0.4c-2.8-1.8-4.2-6.9-6.5-22.9c-0.7-4.8-1.4-9-1.6-9.3c-0.6-1.1-4.6,1.4-9.6,5.8c-5,4.5-5.8,5.5-6.7,8.3c-0.5,1.7-0.4,2.5,0.3,5.9c1,4.8,2.7,8.4,7.2,15.4c1.8,2.9,3.8,6.3,4.4,7.7c4.2,9.3,1.5,19.9-5.9,23.6c-4.4,2.2-6.7,2-19.9-1.4c-15.3-4-20.6-1.1-23.5,12.8c-0.4,1.9-0.7,4.2-0.7,4.9c0,2.6,0.9,2.6,10.9,0c10.6-2.7,14.4-3.1,23.8-2.4c6.2,0.5,8.6,1.2,8.6,2.4c0,0.9-2.2,1.8-5.9,2.6c-3.6,0.7-4,0.7-7.7,0c-6.3-1.3-8.4-1.1-16,1.5c-3.7,1.3-7.9,2.4-9.5,2.6c-5.4,0.5-4.9-0.6-4.8,9l0.1,8.4l3.2-0.3c1.8-0.1,7.2-1.1,12-2.2c16.2-3.6,21.2-4.5,22.9-4.3c0.9,0.1,4.1,0.6,7.2,1.2c3,0.5,9.2,1.1,13.7,1.2l8.2,0.4l3.4,1.7c2.6,1.3,4.2,2.5,6.6,5.2c4.1,4.3,6.9,5.8,11.2,5.8c5.6,0,11.1-3.7,13.7-9.4c1.7-3.7,2.1-8.2,1.8-18.2c-0.3-8.7-0.3-9-1.3-9.3c-0.6-0.2-4.9-0.9-9.7-1.5c-7.3-0.9-8.8-1.2-9.6-2.1c-0.8-0.8-0.9-1.2-0.5-2.1c0.7-1.7,2.6-1.8,7.3-0.7c9,2.1,12.1,1.7,13.1-2c0.6-2.4,0.4-14.4-0.3-15.1c-0.3-0.3-1.2-0.1-3.1,0.7c-4.1,1.8-6.7,1.9-15.3,0.2c-5-1-8.1-1.4-9.7-1.2c-4.9,0.5-8.9,3.7-11.6,9.5c-1.6,3.4-1.7,3.8-1.7,8.4c0,4.1,0.1,5.1,1,6.7c2.4,4.4,7.3,7.6,14.9,9.7c6.7,1.8,8.2,3,7.1,6.1c-0.5,1.5,0.1,1.6-8.4-1.3c-13.3-4.6-16.3-7.1-18.6-15.1c-3.2-11.5-0.1-20.1,9-25.6c5.3-3.2,11.3-3.7,18.5-1.7c6.7,1.9,12.7,0.8,15.8-3c2.3-2.9,2.5-4.1,2.8-17.5c0.3-14.2,0.5-13.5-4-15.1c-1.4-0.6-5.1-2-8.1-3.4c-5.2-2.2-5.8-2.4-9.3-2.4c-2.4,0-3.8-0.2-3.7-0.5s1.1-1,2.2-1.6c1.7-1,2.6-1.2,5.3-1.1c2.7,0,4.1,0.4,8,2c3.3,1.3,5.6,2,7.2,2l2.4,0v-6.7c0-6.4,0-6.8-1.3-9.4c-2.2-4.4-5.5-5.7-16-6.1C104.9,10.1,100.9,10.2,99.1,10.4z"/><path fill="#000000" d="M139.7,10.7c-3.1,0.9-4.5,1.8-6,4.1c-2,3-2.9,5.7-3.1,9.7c-0.3,4.3,0.4,7.4,1.8,8.1c1.4,0.7,3.4,0.3,10.1-2.4c7.3-2.9,10.4-3.5,13.3-2.8c2.6,0.6,4.2,1.8,5.3,3.6c0.8,1.3,0.8,1.5,0,1.8c-0.4,0.1-2.5-0.3-4.5-0.9c-2.1-0.7-4.2-1.2-4.7-1.2c-1.9,0-6.5,1.5-11.2,3.7c-2.7,1.2-5.9,2.5-7,2.8l-2.1,0.6l-0.2,10.9c-0.4,14.7,0.2,17.7,4,21.5c2.8,2.8,5,3.7,9.2,3.6c3,0,4.2-0.2,6.4-1.2c7.1-3.3,15-1.4,21.6,5.2c9,9,9.2,20.8,0.4,29.6c-3.4,3.4-7.2,5.4-13.8,7.5c-7.2,2.2-8.5,2.4-9.2,1.5c-0.5-0.6-0.5-0.9,0.3-2c1.6-2.2,3.7-3.2,9-4.4c7.9-1.8,10.3-3.6,12.7-8.8c3.3-7.1,0.3-17.8-6.2-22.6c-4.6-3.4-8.2-3.7-16-1.3c-5.9,1.8-10,1.8-14.3,0c-2.4-1.1-3.2-1.2-3.5-0.7c-0.7,1.1-1.1,14.2-0.5,15.7c1,2.5,4.7,3,11.5,1.4c5.4-1.2,8.2-1.2,10.2,0.1c2.2,1.5,2.2,2,0,3.1c-3.4,1.7-7.7,2.4-14.9,2.5l-6.8,0l-0.3,1.8c-0.2,1-0.1,6.2,0.1,11.5c0.5,10.6,0.8,11.8,3.6,16.3c5,7.9,12.8,11.4,17.5,7.9c1-0.7,2.6-2.4,3.5-3.6c2.6-3.6,5.4-6,8.4-7.4c2.7-1.2,3.1-1.3,12.5-1.6c8.1-0.2,10.4-0.5,13.9-1.3c3-0.8,5.4-1.1,8.8-1.1c5,0,6,0.3,18.1,3.9c7.3,2.2,15.6,3.6,16.3,2.9c0.2-0.2,0.5-4.1,0.6-8.5l0.3-8.2l-1.3-0.7c-0.7-0.4-3.2-0.9-5.6-1.2c-2.5-0.3-6.1-1.2-8.9-2.2c-5.4-1.8-9.7-2.2-14.3-1c-3.4,0.8-8.2,0.1-11.9-1.8c-2-1-2.6-1.5-2.7-2.5c-0.1-0.8,0.2-1.4,0.9-1.9c1.5-1.1,2.7-0.9,6,0.8c4.2,2.2,5.4,2.4,10.2,1.2c5.5-1.3,7.2-1.2,12.8,0.6c5.8,2,11.6,3.2,13.1,2.8c0.7-0.2,1.2-0.6,1.2-1.2c0-1.5-2.4-11.2-3.3-13.3c-1.2-2.8-3.8-5.5-6.2-6.4c-3-1.2-9-0.6-16.8,1.5c-11.4,3-19.2,2.7-23-1.2c-2.4-2.4-3-4.9-2.7-10.3c0.3-5.4,1.9-10.3,6.6-19.1c8.3-15.9,8.7-20.5,2.1-27.6c-3-3.2-7.9-7.1-9.7-7.8c-0.8-0.3-0.9,0-1.2,3.4c-0.6,7.3-3.1,21.6-4.4,24.9c-0.3,0.7-1.3,2.1-2.4,3.1c-2.8,2.7-5.4,3.3-11.7,3c-3.9-0.2-5.8-0.1-8.2,0.5c-1.8,0.4-4.4,0.7-5.9,0.7c-2.3,0-3-0.2-3.9-1.2c-1.4-1.3-1.4-2.1-0.3-3.2c0.7-0.6,1.2-0.7,3.2-0.2c2,0.4,3.4,0.4,8.3-0.5c3.6-0.6,7.5-0.9,10.1-0.8c4.1,0.1,4.2,0,5.6-1.2c0.9-0.8,1.5-2.1,1.8-3.5c0.7-3.4,1.1-24.5,0.5-26.9c-1.3-4.8-4.5-7.2-11.7-8.5C155.8,9.8,143.1,9.8,139.7,10.7z"/><path fill="#000000" d="M50.9,42.2c-5.2,7-8.3,13-7.7,14.6c0.2,0.4,2.1,1.9,4.3,3.3c4.9,3.1,6.4,4.5,7.6,6.8c1.1,2.2,0.8,3.8-0.8,4.2c-1.7,0.4-3.4-0.5-8.5-4.7c-5.7-4.6-6.3-4.9-7.4-3.5c-2.4,3.1-6,12.1-6,15.1V80l2.4,0.3c1.3,0.2,5.4,1.2,9.1,2.2c8.7,2.4,13.7,3.1,17.2,2.4c5.2-1.1,8.2-4.8,8.2-9.9c0-4.4-1.2-7.5-8.1-19.6c-1.4-2.6-3.6-7.4-4.8-10.6c-1.2-3.2-2.3-6-2.6-6C53.7,38.7,52.4,40.2,50.9,42.2z"/><path fill="#000000" d="M200.9,40.3c-0.4,0.5-1.2,2.8-1.9,5.2c-1.4,5-2.4,7.3-6.5,13.7c-4.8,7.7-5.5,9.4-5.5,14.6c0,4.2,0.1,4.6,1.4,6.4c2.3,3.2,4.1,3.9,10.9,3.8c5.2,0,6.6-0.2,13.3-1.9c4.2-1.1,8.1-1.9,8.8-1.9c2.1,0,3-1,2.6-3c-0.4-2.5-4.3-10.1-6.1-12c-3-3.1-5-2.8-9.2,1.2c-2.7,2.6-5,3.8-6.5,3.3c-1.1-0.4-0.6-2.4,1.2-4.6c2.1-2.7,3.8-4.2,7.4-6.4c1.5-0.9,2.8-1.8,2.8-2.1c0-0.5-5.4-10-7.4-13c-1.6-2.4-3.4-4.1-4.2-4.1C201.8,39.5,201.3,39.9,200.9,40.3z"/><path fill="#000000" d="M44.3,129.1c-5.8,1.5-13.5,3.5-17,4.3l-6.4,1.5l0.3,3.5c0.3,3.5,1.1,9,2.1,15.1c0.3,2.2,0.8,3.4,1.2,3.4c0.3,0,2.3-0.6,4.3-1.4c4.2-1.6,5.5-1.7,9.5-0.7c1.5,0.4,3.7,0.7,5,0.7c3.2,0,3.8-0.8,5.1-6.5c0.3-1.5,3.7-5,5.7-5.8c6.6-2.8,13.9,3.5,16.2,13.8c1.7,8.1-0.5,12.3-7.9,15.1c-1.5,0.6-4.5,2.1-6.6,3.4c-3.8,2.3-7.4,3.7-8.5,3.4c-2.2-0.6-2.2-0.6,1.7-4.6c2.1-2.2,4.3-4.2,5-4.4c0.6-0.3,3-0.8,5.1-1.2c6.4-1.1,7.7-2.1,7.7-6.2c0-5.8-4.4-14.5-8.5-16.5c-3-1.6-4.4,0.2-6.4,7.7c-1.4,5.2-3,6.9-6.3,6.9c-1.2,0-4-0.5-6.2-1.2c-3.8-1.1-7.5-1.5-8.5-0.8c-2.6,1.8-3.1,10-0.9,16.7c1.5,4.6,5.6,12.9,9,18.4c3.2,5.1,8.1,11.7,9.4,12.5c1.3,0.8,2,0,2.6-3.9c1-5.5,3-9,6.2-10.4c1.6-0.7,3-0.9,8.4-0.9c3.6,0,7.3-0.2,8.2-0.5c2.4-0.7,4.2-2.4,6.3-6c3.2-5.5,5.4-6.8,13.9-8.3c7.8-1.4,11.6-1.2,12.4,0.7c0.5,1.4-1.1,2.1-7.8,3.4c-10,2-10.7,2.4-14.4,7.2c-2.6,3.4-5.1,5.6-7.1,6.5c-1.1,0.5-3.6,0.6-8.5,0.6c-3.8,0-7.5,0.2-8.2,0.5c-4.2,1.6-6.7,7.7-5.7,13.8c1.1,6.5,5,12.3,12.5,18.3c18.2,14.7,35.3,21,48.5,17.9c6.8-1.6,8.8-4.2,9.7-12.7c1.1-10.2-0.5-15.2-4.9-15.2c-1.6,0-5.5,1.8-10,4.5c-5.8,3.6-8.7,4.8-11.7,5c-4.1,0.3-5.6-0.9-10.5-8.1c-0.7-1-2.7-2.8-4.5-4c-1.8-1.2-3.2-2.4-3.2-2.6c0-0.7,6.6-0.1,8.1,0.7c0.7,0.4,2.5,2.1,4,3.7c3.4,3.8,4.6,4.2,9.2,3c1.8-0.5,7.8-2.3,13.3-4.1l9.9-3.2l0.4-4.8c0.5-6.6,0.2-12.3-0.7-13.2c-1-1-5.1-1.3-9.8-0.7c-5.4,0.7-6.5,1.3-10.3,4.8c-3.3,3.1-5.2,4-6.5,3.2c-1.2-0.8-0.7-2.9,1.5-5.6c2.3-3,5.8-5.3,9.3-6c1.3-0.3,4.8-0.6,7.9-0.8c7.1-0.2,7.5-0.3,8.3-1.9c0.6-1.2,0.6-2.6,0.2-10.1c-0.6-12-1.5-14.7-5.7-16.9c-1.7-0.9-2.6-1-7.5-1c-4.9,0-6.1,0.2-10.3,1.5c-10.3,3.2-14.5,1.4-20.5-8.6c-2.8-4.7-3-5.8-1.6-6.7c2-1.3,3.9,0.4,6.7,6.1c2,4,3.9,5.4,7.9,5.6c2.5,0.1,3.9-0.1,8.4-1.6c4.4-1.4,6-1.7,9.2-1.7c3.8,0,5.4,0.4,10.5,2.5c1.3,0.6,1.6,0.5,2.3-0.2c0.7-0.7,0.8-1.7,0.7-6.9c-0.1-8.3-0.6-12.8-1.3-13.1c-0.3-0.1-2.3,0.9-4.3,2.3c-8.7,5.9-12.9,5.3-22.9-3.6c-3-2.7-6.1-5.2-6.9-5.6c-1.7-0.9-6.1-1-14.2-0.4c-4.4,0.3-5.4,0.3-10.1-0.8C56.8,125.9,56.4,125.9,44.3,129.1z"/><path fill="#000000" d="M196.7,126.6c-0.7,0.1-4.1,0.8-7.4,1.4c-5,1.1-7.1,1.2-12.2,1.2c-6.9-0.1-10.6,0.6-13.1,2.3c-0.8,0.6-3.1,2.6-5.2,4.5c-5,4.7-8.2,6.2-12.4,6.2c-4,0-7-1.3-11.1-4.8c-1.6-1.3-3-2.4-3.3-2.4c-0.9,0-1,1.5-1,11.6V157l1.6-0.3c0.9-0.1,3.4-0.9,5.5-1.8c4.8-1.8,6.7-1.7,14.4,0.9c7.2,2.4,9.4,2.7,12,1.8c2.2-0.9,3.1-2,6.1-7.1c1.1-1.8,2.4-3.6,3-4.1c1.2-0.8,3.4-0.9,3.8-0.2c0.5,0.7-3.9,8.5-6.2,11.2c-4.2,4.8-8.4,5.5-18.1,3.1c-7.8-1.9-11.8-2-15.3-0.3c-3,1.5-5.1,3.9-6.5,7.4c-0.8,1.9-1,3.8-1.2,9.8c-0.1,4.8,0,8.1,0.3,9.3c0.5,1.8,0.7,2,2.5,2.5c1.2,0.3,3.5,0.4,6.3,0.2c10.9-0.7,19.4,3.9,19.4,10.7c0,1.9-0.7,3.4-1.6,3.4c-0.3,0-2.4-1.8-4.5-3.9c-3.5-3.6-4.2-4-6.6-4.7c-2.9-0.8-14.2-1.1-14.9-0.4c-0.6,0.6-0.5,17.7,0.2,18.3c0.3,0.3,2.5,0.6,5.3,0.7c5.2,0.2,7.1,0.7,10.8,3.1c9.6,6.1,12.9,5.7,19.2-2.4c2.4-3.1,4.1-4.1,6.3-3.6c2.1,0.4,5.2,1.6,5.2,2c0,0.2-1,0.6-2.2,0.9c-3.7,1-5.7,2.4-8.9,6.6c-3.9,5-6.6,6.9-9.9,6.9c-3,0-5.2-1.1-10.9-4.8c-4.9-3.3-7.5-4.4-10.3-4.4c-3.3,0-5,2.1-5.6,6.9c-0.4,3.7,0.4,11.1,1.6,13.3c2.5,4.8,8.4,7.7,16,7.7c15.3,0,38.7-11.6,48.1-23.8c1.1-1.5,2.8-4.3,3.7-6.3c1.5-3.1,1.8-4.1,1.9-7.8c0.5-9.9-2.8-13.3-11.5-12.2c-6,0.7-9.8,0.6-11.9-0.5c-2-1-3-2.2-5-6.3c-1.6-3.1-3.9-5.4-6.8-6.7c-1.1-0.5-4.7-1.3-8.1-1.8c-6.6-1.1-7.5-1.3-8.3-2.7c-0.3-0.6-0.2-1.2,0.6-2.1c1-1.2,1.1-1.2,4.5-1c4.5,0.3,10.3,2,13.7,4.1c1.8,1.1,3.3,2.5,4.8,4.5c3.2,4.4,4.7,6,6.2,6.8c1.8,0.9,5.5,0.9,9.5,0c4.4-1.1,6.8-0.9,9.6,0.5c3.8,1.9,6.3,6.5,6.9,13c0.2,1.9,0.6,3.1,1,3.3c1.7,0.6,10.7-11.2,14.8-19.5c3.6-7.3,5.1-12.5,5.4-18.7c0.4-8.2-1.3-10.1-7.4-8.5c-6.7,1.8-11.4,0.6-13.2-3.2c-0.5-1.1-0.9-2.2-0.9-2.6c0-1.7-1.5-6.3-2.4-7.2c-0.7-0.8-1.5-1.1-2.9-1.1c-2.8,0-4.8,1.5-6.6,5.1c-1.6,3.1-3.4,9.8-3.4,12.6c0,2.4,1.8,3.8,6.1,4.5c4.5,0.7,6.3,1.3,8,2.5c1.4,1.1,7.6,7.1,7.6,7.4c0,0.1-0.7,0.4-1.6,0.7c-2.1,0.7-3.4,0.2-7.4-2.5c-3.1-2.1-4.2-2.6-9.1-3.5c-5.5-1-7.7-3.6-7.7-9.2c0-9.3,5.9-20.7,11.5-22.3c4.9-1.3,9.3,1.8,10,6.9c0.5,3.8,1.2,5.7,2.5,7c1.8,1.8,4.2,1.8,9-0.4c2-0.9,4.7-1.8,5.9-1.9c2-0.2,2.2-0.2,4.4,1.9c1.8,1.8,3.3,2.6,3.3,2c0,0,0.5-2.8,1.2-6c1.4-7.1,1.9-13.8,1.2-15.7c-0.5-1.2-0.6-1.2-4.1-1.2c-6.4,0-9.7-0.9-23-5.7C204.5,126.9,199.4,126.2,196.7,126.6z"/></g></g></g>
</svg>

